<svg xmlns="http://www.w3.org/2000/svg" viewBox="0 0 64 64">
  <defs/>
  <path d="M32.025391 3c-3.067773 0-6.153783 1.84398-9.679688 6.3242188-1.023869 1.3008682-2.27266 3.0542032-3.582031 5.1445312a1.0003736 1.0003736 0 101.695312 1.0625c1.27263-2.031672 2.486854-3.735571 3.458985-4.970703C27.264064 6.3087854 29.743163 5 32.025391 5c2.282227 0 4.761326 1.3087854 8.107421 5.560547 2.76206 3.508799 7.415658 10.765272 9.986329 18.675781 2.57067 7.910509 3.062584 16.340498-2.072266 22.658203-.777034.955479-2.573291 2.964022-6.019531 4.71875-6.247535 3.182562-13.732408 3.182219-19.976563-.005859-3.447277-1.760536-5.273547-3.776904-6.054687-4.720703-3.078229-3.721102-4.148156-8.154399-3.980469-12.851563a1.0001 1.0001 0 10-1.998047-.070312c-.1803128 5.050836 1.003729 10.046367 4.4375 14.197265.87086 1.052201 2.938825 3.313099 6.685547 5.226563 6.819845 3.481963 14.972456 3.481256 21.794922.005859 3.74976-1.909271 5.795097-4.16976 6.664062-5.238281 5.72215-7.040294 5.099455-16.297619 2.421875-24.537109-2.677579-8.239493-7.406419-15.595721-10.318359-19.2949222C38.17722 4.84398 35.093163 3 32.025391 3zm-.478516 8.830078c-.438338.031805-.876354.097133-1.3125.195313v-.001953c-2.336278.525577-4.266597 1.95976-5.533203 3.667968-.277115.373732-.389841.79855-.603516 1.197266-2.06115 2.32631-2.852112 5.614621-1.839844 8.447266.797434 2.231681 2.437843 3.685445 5.623047 5.529296 2.626509 1.520557 4.149118 2.184051 5.22461 2.728516 1.075491.544465 1.693802.933335 2.857422 2.109375 1.178208 1.191211 2.876386 2.973603 2.820312 5.273437-.06192 2.55175-2.343001 5.534175-5.382812 6.03711-.39422.06501-3.598733.487785-5.269532-1.632813-.797828-1.012202-1.041109-2.361642-.785156-3.714843.480567.569447 1.052111 1.079962 1.796875 1.294922 1.571725.453145 3.272348-.08034 4.199219-1.38086.948096-1.331241.643043-2.935801.076172-4.037109-.800492-1.555575-2.322381-2.120977-3.814453-2.548828-1.492072-.427851-3.118222-.800714-4.847657-1.84961-1.913811-1.161364-3.123169-2.649956-3.835937-3.705078a1.0001 1.0001 0 00-1.71875.107422c-.880378 1.729276-2.078195 4.664804-2.181641 8.425781-.05595 2.050137-.269439 8.384025 4.464844 12.761719 5.253743 4.856765 14.097649 5.341774 19.923828 1.072266.616056-.451401 5.152446-3.849914 5.589844-9.732422.489761-6.598136-4.603572-11.021329-5.519531-11.826172a1.0001 1.0001 0 00-.001954 0c-.284119-.24913-.54538-.462725-.828124-.660156h-.001954c-.331673-.231611-.827831-.553995-1.486328-.853516a1.0001 1.0001 0 10-.828125 1.820313c.514852.234183.891644.479489 1.169922.673828.206785.144327.404829.302974.65625.523437.914041.803157 5.251989 4.673964 4.84375 10.173828-.364602 4.903492-4.291446 7.912979-4.775391 8.267578-4.967821 3.640492-12.922555 3.195501-17.382812-.927734-4.001717-3.700306-3.88027-9.184418-3.824219-11.238281.0704-2.559434.712645-4.516085 1.365235-6.083985.822322.972437 1.834946 2.002443 3.333984 2.91211 2.026566 1.229104 3.928056 1.657398 5.333984 2.060547 1.405928.403149 2.15243.69859 2.585938 1.541015.307131.596692.388122 1.522132.074219 1.962891-.352831.495065-1.277657.830886-2.015625.61914-.81769-.236007-1.410591-1.044495-1.353516-1.978515a1.0001 1.0001 0 00-1.824219-.625c-1.766272 2.58649-1.76096 5.897438.041016 8.183594 2.467201 3.131402 6.614236 2.458178 7.166015 2.367187 4.080191-.675065 6.966604-4.332641 7.054688-7.96289.07993-3.278166-2.218693-5.535774-3.396484-6.726563-1.27238-1.28596-2.209492-1.898246-3.375-2.488281-1.165509-.590036-2.571462-1.194385-5.126954-2.673828-3.064795-1.774149-4.127667-2.756386-4.740234-4.470704-.268195-.750492-.306163-1.584984-.242187-2.425781.172326.254841.218088.513191.484375.75.612235.544461 1.477874 1.096276 2.876953 1.882813a1.0001 1.0001 0 10.978515-1.742188c-1.35092-.759463-2.125875-1.279476-2.52539-1.634765-.399515-.355289-.432359-.459433-.513672-.757813-.19872-.727783.06815-1.738349.558594-2.757812.07349-.07649.119835-.175406.197265-.248047.651264-.610247 2.226542-2.057993 4.351563-1.742188.909977.135179 1.598645.574694 2.146484 1.039063-.167408.0711-.353926.04868-.509766.160156-1.372185.98114-1.45168 3.079501-.154296 4.490234a1.0001 1.0001 0 00.353515.246094l7.253907 3a1.0001 1.0001 0 001.302734-.535156c.08886-.210138.556734-1.3701.648437-3.064453.0917-1.694353-.231548-3.922136-1.818359-5.941407-1.613277-2.053338-4.07254-3.358542-6.673828-3.550781-.433548-.03204-.872209-.033758-1.310547-.001953zm.142578 1.998047c.340084-.022944.680314-.020851 1.019531.005859 2.035306.160262 3.998278 1.190041 5.25 2.783204 1.231189 1.566728 1.468079 3.238759 1.394532 4.597656-.04315.797296-.161991.974459-.289063 1.40625l-5.847656-2.417969c-.466499-.619513-.281573-1.266104-.107422-1.390625.127528-.09123.587903-.152713 1.033203.076172a1.0001 1.0001 0 001.332031-1.373047c-.204212-.369294-1.702779-3.032956-4.873047-3.503906-.0028-.000419-.005012.000414-.007812 0 .02886-.0069.051098-.028636.080078-.035157a1.0001 1.0001 0 000-.001953c.335604-.075557.675541-.12354 1.015625-.146484zm-14.8125 2.847656a1.0001 1.0001 0 00-.496094 1.878907l1.746094.974609a1.0001 1.0001 0 10.974609-1.746094l-1.748046-.974609a1.0001 1.0001 0 00-.476563-.132813zm-2.203125 4.150391a1.0001 1.0001 0 00-.371094 1.908203l1.808594.855469a1.0001 1.0001 0 10.853516-1.808594l-1.806641-.853516a1.0001 1.0001 0 00-.484375-.101562zm17.322266 4.167969a1.0001 1.0001 0 00-.470703 1.886718c1.171741.631015 2.164974 1.155702 3.011718 1.597657a1.0002693 1.0002693 0 10.925782-1.773438c-.839256-.438045-1.824023-.958952-2.988282-1.585937a1.0001 1.0001 0 00-.478515-.125zm-19.142578.128906a1.0001 1.0001 0 00-.322266 1.939453l1.867188.714844a1.0005859 1.0005859 0 00.714843-1.869141l-1.867187-.714844a1.0001 1.0001 0 00-.392578-.070312zM11.375 29.574219a1.0001 1.0001 0 00-.242188 1.966797l1.925782.539062a1.0001 1.0001 0 10.539062-1.925781l-1.925781-.539063a1.0001 1.0001 0 00-.296875-.041015zm-1.025391 4.609375a1.0001 1.0001 0 00-.109375 1.990234l1.976563.308594a1.0002539 1.0002539 0 00.308594-1.976563l-1.976563-.308593a1.0001 1.0001 0 00-.199219-.013672z"/>
</svg>
