<svg xmlns="http://www.w3.org/2000/svg" fill="none" viewBox="0 0 12 12">
  <defs/>
  <g clip-path="url(#clip0)">
    <path fill="#FE646F" d="M8.997 1.2442c-1.44314 0-2.64783 1.0201-2.93287 2.37851-.0147.07001-.11356.07005-.12825 0C5.65083 2.2643 4.44617 1.2442 3.00302 1.2442H3.003c-2.755077 0-4.05044 3.40467-1.99214 5.23601L5.679 10.6336c.18302.1629.45895.1629.64198 0l4.66812-4.15339c2.0583-1.83134.763-5.23601-1.9921-5.23601z"/>
    <path fill="#FD4755" d="M8.997 1.2442c-.1669 0-.33054.01381-.48999.04003 2.39939.38609 3.41319 3.48092 1.48557 5.19598L5.50171 10.4759l.17728.1577c.18302.1629.45895.1629.64198 0l4.66813-4.15339c2.0584-1.83134.763-5.23601-1.9921-5.23601z"/>
  </g>
  <defs>
    <clipPath id="clip0">
      <path fill="#fff" d="M0 0h12v12H0z"/>
    </clipPath>
  </defs>
</svg>
