<svg xmlns="http://www.w3.org/2000/svg" fill="none" viewBox="0 0 12 12">
  <defs/>
  <path fill="#3498DB" d="M11.7169 4.41236l-3.88688-.3605L6.28605.46666c-.10809-.251038-.46404-.251038-.57213 0L4.16998 4.05189l-3.886849.36047c-.2721557.02524-.3821476.36375-.176812.54412L3.03895 7.53277l-.85823 3.80803c-.06009.2666.22786.4758.46287.3363L6 9.6841l3.3564 1.993c.23501.1395.52299-.0697.46289-.3363l-.85825-3.80803 2.93266-2.57629c.2053-.18037.0953-.51888-.1768-.54412z"/>
  <path fill="#2980B9" d="M6.28605.46666c-.10809-.251038-.46404-.251038-.57213 0L4.16998 4.05189l-3.886849.36047c-.2721557.02524-.3821476.36375-.176812.54412L3.03895 7.53277l-.85823 3.80803c-.06009.2666.22786.4758.46287.3363l.74913-.4448c.10369-4.26803 2.08673-7.27358 3.65676-8.99292L6.28605.46666z"/>
</svg>
