<svg xmlns="http://www.w3.org/2000/svg" viewBox="0 0 512 512">
  <defs/>
  <path d="M488.559 380.738h-4.011c2.347-4.227 3.688-9.085 3.688-14.253V157.182c0-16.244-13.216-29.461-29.462-29.461h-72.673c-3.857 0-7.54.752-10.919 2.107l8.599-32.616c4.142-15.708-5.268-31.857-20.976-35.998l-33.414-8.808c-7.613-2.007-15.545-.93-22.344 3.032-6.799 3.962-11.648 10.334-13.655 17.944l-68.354 259.264V29.936c0-16.245-13.216-29.462-29.462-29.462h-34.554c-16.245 0-29.462 13.217-29.462 29.462v336.096c0 5.354 1.443 10.374 3.949 14.705h-21.326c2.347-4.227 3.688-9.085 3.688-14.253V238.287c0-4.199-3.404-7.604-7.604-7.604s-7.604 3.405-7.604 7.604v128.198c0 7.858-6.394 14.253-14.254 14.253h-34.55c-7.859 0-14.254-6.394-14.254-14.253V175.67c0-7.859 6.394-14.254 14.254-14.254h34.554c7.859 0 14.254 6.394 14.254 14.254v37.27c0 4.199 3.404 7.604 7.604 7.604s7.604-3.405 7.604-7.604v-37.27c0-16.245-13.216-29.462-29.462-29.462H53.859c-16.245 0-29.462 13.217-29.462 29.462v190.816c0 5.168 1.341 10.026 3.688 14.253H23.44C10.516 380.738 0 391.254 0 404.179v18.004c0 12.926 10.516 23.442 23.441 23.442h124.077c4.2 0 7.604-3.405 7.604-7.604s-3.404-7.604-7.604-7.604H23.441c-4.54 0-8.234-3.693-8.234-8.234v-18.004c0-4.54 3.694-8.234 8.234-8.234H488.558c4.54 0 8.234 3.694 8.234 8.234v18.004c0 4.54-3.695 8.234-8.234 8.234H172.866c-4.2 0-7.604 3.405-7.604 7.604s3.404 7.604 7.604 7.604h315.692c12.926 0 23.442-10.516 23.442-23.442v-18.004c0-12.925-10.516-23.441-23.441-23.441zm-278.725-14.706c0 7.859-6.394 14.254-14.254 14.254h-34.554c-7.859 0-14.254-6.394-14.254-14.254V29.936c0-7.859 6.394-14.254 14.254-14.254h34.554c7.859 0 14.254 6.394 14.254 14.254v336.096zm11.258 14.706c1.297-2.241 2.312-4.665 2.984-7.227 1.775 2.788 3.97 5.217 6.497 7.227h-9.481zm87.007 0c1.154-2.086 2.077-4.34 2.712-6.747l45.831-173.833v166.327c0 5.168 1.341 10.026 3.688 14.253h-52.231zm60.98-287.404l-72.973 276.779c-.97 3.681-3.316 6.765-6.606 8.682s-7.126 2.439-10.81 1.468l-33.414-8.809c-3.681-.971-6.765-3.316-8.682-6.606-1.917-3.29-2.437-7.128-1.467-10.81L308.1 77.258c.97-3.681 3.316-6.764 6.606-8.682 2.208-1.287 4.664-1.945 7.153-1.945 1.22 0 2.447.158 3.657.477l33.414 8.809c7.599 2.005 12.151 9.818 10.149 17.417zm103.949 248.717h-14.252c-4.2 0-7.604 3.405-7.604 7.604s3.404 7.604 7.604 7.604h14.252v9.226c0 7.858-6.394 14.253-14.254 14.253h-72.672c-7.859 0-14.254-6.394-14.254-14.253v-9.226h61.579c4.2 0 7.604-3.405 7.604-7.604s-3.404-7.604-7.604-7.604h-61.579V181.616h101.179v160.435zm.001-175.643H371.85v-9.226c0-7.858 6.393-14.253 14.253-14.253h72.673c7.859 0 14.254 6.394 14.254 14.253v9.226zM98.345 455.766c-4.2 0-7.604 3.405-7.604 7.604v25.378c0 4.174-3.396 7.57-7.57 7.57H70.937c-4.174 0-7.57-3.396-7.57-7.57V463.37c0-4.199-3.404-7.604-7.604-7.604s-7.604 3.405-7.604 7.604v25.378c0 12.56 10.218 22.778 22.778 22.778H83.17c12.561 0 22.778-10.219 22.778-22.778V463.37c.001-4.2-3.403-7.604-7.603-7.604zM456.238 455.766c-4.2 0-7.604 3.405-7.604 7.604v25.378c0 4.174-3.396 7.57-7.57 7.57H428.83c-4.174 0-7.57-3.396-7.57-7.57V463.37c0-4.199-3.404-7.604-7.604-7.604s-7.604 3.405-7.604 7.604v25.378c0 12.56 10.218 22.778 22.778 22.778h12.233c12.561 0 22.778-10.219 22.778-22.778V463.37c.001-4.2-3.403-7.604-7.603-7.604z"/>
  <path d="M71.137 215.581c-4.2 0-7.604 3.405-7.604 7.604v95.786c0 4.199 3.404 7.604 7.604 7.604s7.604-3.405 7.604-7.604v-95.786c0-4.2-3.404-7.604-7.604-7.604zM191.29 42.813h-25.976c-4.2 0-7.604 3.405-7.604 7.604s3.404 7.604 7.604 7.604h25.976c4.2 0 7.604-3.405 7.604-7.604 0-4.2-3.403-7.604-7.604-7.604zM191.29 69.075h-25.976c-4.2 0-7.604 3.405-7.604 7.604s3.404 7.604 7.604 7.604h25.976c4.2 0 7.604-3.405 7.604-7.604s-3.403-7.604-7.604-7.604zM191.29 95.337h-25.976c-4.2 0-7.604 3.405-7.604 7.604s3.404 7.604 7.604 7.604h25.976c4.2 0 7.604-3.405 7.604-7.604s-3.403-7.604-7.604-7.604zM347.865 101.058l-25.117-6.622c-4.06-1.073-8.22 1.354-9.291 5.414-1.072 4.062 1.354 8.221 5.414 9.291l25.117 6.623c.65.171 1.302.253 1.944.253 3.369 0 6.448-2.257 7.347-5.667 1.072-4.061-1.354-8.221-5.414-9.292zM341.169 126.453l-25.117-6.623c-4.06-1.074-8.22 1.354-9.291 5.414-1.071 4.061 1.353 8.22 5.414 9.291l25.117 6.623c.65.171 1.302.253 1.944.253 3.369 0 6.448-2.257 7.347-5.667 1.072-4.06-1.353-8.22-5.414-9.291zM447.785 202.746h-50.693c-4.2 0-7.604 3.405-7.604 7.604s3.404 7.604 7.604 7.604h50.693c4.2 0 7.604-3.405 7.604-7.604s-3.404-7.604-7.604-7.604z"/>
</svg>
